<svg width="590" height="520" viewBox="0 0 590 520" fill="none" xmlns="http://www.w3.org/2000/svg">
<g filter="url(#filter0_d_0_1)">
<path d="M50.24 258V0.719994H59.84V258H50.24ZM8 258V0.719994H17.6V258H8ZM29.12 258V0.719994H38.72V258H29.12ZM71.36 150.48V140.88H146.56C158.72 140.88 169.707 138.213 179.52 132.88C189.547 127.547 197.44 119.973 203.2 110.16C209.173 100.347 212.16 88.8267 212.16 75.6C212.16 62.3733 209.173 50.8533 203.2 41.04C197.44 31.2267 189.547 23.6533 179.52 18.32C169.707 12.9867 158.72 10.32 146.56 10.32H71.36V0.719994H146.56C160.427 0.719994 173.013 3.91999 184.32 10.32C195.84 16.5066 204.907 25.2533 211.52 36.56C218.347 47.6533 221.76 60.6667 221.76 75.6C221.76 90.5333 218.347 103.653 211.52 114.96C204.907 126.053 195.84 134.8 184.32 141.2C173.013 147.387 160.427 150.48 146.56 150.48H71.36ZM71.36 129.36V119.76H146.56C158.933 119.76 169.387 115.92 177.92 108.24C186.667 100.347 191.04 89.4667 191.04 75.6C191.04 61.7333 186.667 50.96 177.92 43.28C169.387 35.3867 158.933 31.44 146.56 31.44H71.36V21.84H146.56C156.587 21.84 165.653 24.08 173.76 28.56C181.867 32.8267 188.373 39.0133 193.28 47.12C198.187 55.0133 200.64 64.5067 200.64 75.6C200.64 86.6933 198.187 96.2933 193.28 104.4C188.373 112.293 181.867 118.48 173.76 122.96C165.653 127.227 156.587 129.36 146.56 129.36H71.36ZM71.36 108.24V98.64H146.56C152.96 98.64 158.4 96.8267 162.88 93.2C167.573 89.36 169.92 83.4933 169.92 75.6C169.92 67.4933 167.573 61.6267 162.88 58C158.4 54.3733 152.96 52.56 146.56 52.56H71.36V42.96H146.56C155.733 42.96 163.52 45.7333 169.92 51.28C176.32 56.8267 179.52 64.9333 179.52 75.6C179.52 86.2667 176.32 94.3733 169.92 99.92C163.52 105.467 155.733 108.24 146.56 108.24H71.36ZM70.4 258V248.4H148.16C163.733 248.4 177.067 245.413 188.16 239.44C199.467 233.253 208.107 224.933 214.08 214.48C220.267 203.813 223.36 191.76 223.36 178.32C223.36 170 222.293 162.107 220.16 154.64C218.24 146.96 215.147 140.24 210.88 134.48C212.16 133.413 213.333 132.347 214.4 131.28C215.68 130 216.747 128.613 217.6 127.12C227.84 140.56 232.96 157.627 232.96 178.32C232.96 193.467 229.44 207.12 222.4 219.28C215.573 231.227 205.76 240.72 192.96 247.76C180.373 254.587 165.44 258 148.16 258H70.4ZM70.4 236.88V227.28H148.16C165.867 227.28 179.307 222.693 188.48 213.52C197.653 204.347 202.24 192.613 202.24 178.32C202.24 172.773 201.6 167.44 200.32 162.32C199.04 156.987 197.227 152.293 194.88 148.24C196.587 147.387 198.08 146.427 199.36 145.36C200.64 144.293 201.707 143.333 202.56 142.48C205.547 147.173 207.787 152.613 209.28 158.8C210.987 164.987 211.84 171.493 211.84 178.32C211.84 195.173 206.293 209.147 195.2 220.24C184.107 231.333 168.427 236.88 148.16 236.88H70.4ZM70.4 215.76V206.16H148.16C159.893 206.16 168.32 203.6 173.44 198.48C178.56 193.36 181.12 186.64 181.12 178.32C181.12 170.427 179.093 163.6 175.04 157.84C176.533 157.413 178.027 156.88 179.52 156.24C181.013 155.387 182.507 154.533 184 153.68C188.48 160.933 190.72 169.147 190.72 178.32C190.72 189.413 187.2 198.48 180.16 205.52C173.333 212.347 162.667 215.76 148.16 215.76H70.4ZM279.338 258V97.2H285.338V258H279.338ZM252.938 258V97.2H258.938V258H252.938ZM266.138 258V97.2H272.138V258H266.138ZM462.081 177.6C462.081 166.933 460.215 156.933 456.481 147.6C452.881 138.133 447.681 129.867 440.881 122.8C434.081 115.733 425.948 110.2 416.481 106.2C407.015 102.2 396.415 100.2 384.681 100.2C372.948 100.2 362.348 102.2 352.881 106.2C343.415 110.2 335.281 115.733 328.481 122.8C321.681 129.867 316.415 138.133 312.681 147.6C309.081 156.933 307.281 166.933 307.281 177.6C307.281 188.267 309.081 198.333 312.681 207.8C316.415 217.133 321.681 225.333 328.481 232.4C335.281 239.467 343.415 245 352.881 249C362.348 253 372.948 255 384.681 255C396.415 255 407.015 253 416.481 249C425.948 245 434.081 239.467 440.881 232.4C447.681 225.333 452.881 217.133 456.481 207.8C460.215 198.333 462.081 188.267 462.081 177.6ZM448.881 177.6C448.881 165.733 446.281 155 441.081 145.4C435.881 135.667 428.481 127.933 418.881 122.2C409.281 116.467 397.881 113.6 384.681 113.6C371.615 113.6 360.215 116.467 350.481 122.2C340.881 127.933 333.481 135.667 328.281 145.4C323.081 155 320.481 165.733 320.481 177.6C320.481 189.333 323.081 200.067 328.281 209.8C333.481 219.533 340.881 227.267 350.481 233C360.215 238.733 371.615 241.6 384.681 241.6C397.881 241.6 409.281 238.733 418.881 233C428.481 227.267 435.881 219.533 441.081 209.8C446.281 200.067 448.881 189.333 448.881 177.6ZM435.681 177.6C435.681 168.267 433.681 159.8 429.681 152.2C425.681 144.467 419.881 138.333 412.281 133.8C404.681 129.133 395.481 126.8 384.681 126.8C374.015 126.8 364.815 129.133 357.081 133.8C349.481 138.333 343.681 144.467 339.681 152.2C335.681 159.8 333.681 168.267 333.681 177.6C333.681 186.933 335.681 195.467 339.681 203.2C343.681 210.8 349.481 216.933 357.081 221.6C364.815 226.133 374.015 228.4 384.681 228.4C395.481 228.4 404.681 226.133 412.281 221.6C419.881 216.933 425.681 210.8 429.681 203.2C433.681 195.467 435.681 186.933 435.681 177.6ZM384.681 234.6C372.815 234.6 362.615 232.067 354.081 227C345.548 221.8 339.015 214.867 334.481 206.2C329.948 197.533 327.681 188 327.681 177.6C327.681 167.067 329.948 157.533 334.481 149C339.015 140.333 345.548 133.467 354.081 128.4C362.615 123.2 372.815 120.6 384.681 120.6C396.548 120.6 406.748 123.2 415.281 128.4C423.815 133.467 430.348 140.333 434.881 149C439.415 157.533 441.681 167.067 441.681 177.6C441.681 188 439.415 197.533 434.881 206.2C430.348 214.867 423.815 221.8 415.281 227C406.748 232.067 396.548 234.6 384.681 234.6ZM384.681 247.8C374.015 247.8 364.348 246 355.681 242.4C347.148 238.667 339.748 233.6 333.481 227.2C327.348 220.8 322.615 213.4 319.281 205C316.081 196.467 314.481 187.333 314.481 177.6C314.481 167.867 316.081 158.8 319.281 150.4C322.615 141.867 327.348 134.4 333.481 128C339.748 121.467 347.148 116.4 355.681 112.8C364.348 109.2 374.015 107.4 384.681 107.4C395.348 107.4 404.948 109.2 413.481 112.8C422.148 116.4 429.548 121.467 435.681 128C441.948 134.4 446.681 141.867 449.881 150.4C453.215 158.8 454.881 167.867 454.881 177.6C454.881 187.333 453.215 196.467 449.881 205C446.681 213.4 441.948 220.8 435.681 227.2C429.548 233.6 422.148 238.667 413.481 242.4C404.948 246 395.348 247.8 384.681 247.8ZM384.681 261C372.148 261 360.748 258.867 350.481 254.6C340.348 250.2 331.615 244.2 324.281 236.6C316.948 229 311.281 220.2 307.281 210.2C303.281 200.067 301.281 189.2 301.281 177.6C301.281 166 303.281 155.2 307.281 145.2C311.281 135.067 316.948 126.2 324.281 118.6C331.615 111 340.348 105.067 350.481 100.8C360.748 96.4 372.148 94.2 384.681 94.2C397.215 94.2 408.548 96.4 418.681 100.8C428.948 105.067 437.748 111 445.081 118.6C452.415 126.2 458.081 135.067 462.081 145.2C466.081 155.2 468.081 166 468.081 177.6C468.081 189.2 466.081 200.067 462.081 210.2C458.081 220.2 452.415 229 445.081 236.6C437.748 244.2 428.948 250.2 418.681 254.6C408.548 258.867 397.215 261 384.681 261Z" fill="#3F51B5"/>
</g>
<g filter="url(#filter1_i_0_1)">
<path d="M35.68 520V327.04H42.88V520H35.68ZM4 520V327.04H11.2V520H4ZM19.84 520V327.04H27.04V520H19.84ZM160.24 520V327.04H167.44V520H160.24ZM128.56 520V327.04H135.76V520H128.56ZM144.4 520V327.04H151.6V520H144.4ZM51.52 411.28V404.08H119.92V411.28H51.52ZM51.52 427.12V419.92H119.92V427.12H51.52ZM51.52 442.96V435.76H119.92V442.96H51.52ZM215.536 520V360.808H221.476V520H215.536ZM189.4 520V360.808H195.34V520H189.4ZM202.468 520V360.808H208.408V520H202.468ZM228.604 366.748V360.808H307.606V366.748H228.604ZM228.604 379.816V373.876H307.606V379.816H228.604ZM228.604 392.884V386.944H307.606V392.884H228.604ZM228.604 430.306V424.366H296.32V430.306H228.604ZM228.604 443.374V437.434H296.32V443.374H228.604ZM228.604 456.442V450.502H296.32V456.442H228.604ZM228.604 493.864V487.924H307.606V493.864H228.604ZM228.604 506.932V500.992H307.606V506.932H228.604ZM228.604 520V514.06H307.606V520H228.604ZM349.534 520V360.808H355.474V520H349.534ZM323.398 520V360.808H329.338V520H323.398ZM336.466 520V360.808H342.406V520H336.466ZM362.602 453.472V447.532H409.132C416.656 447.532 423.454 445.882 429.526 442.582C435.73 439.282 440.614 434.596 444.178 428.524C447.874 422.452 449.722 415.324 449.722 407.14C449.722 398.956 447.874 391.828 444.178 385.756C440.614 379.684 435.73 374.998 429.526 371.698C423.454 368.398 416.656 366.748 409.132 366.748H362.602V360.808H409.132C417.712 360.808 425.5 362.788 432.496 366.748C439.624 370.576 445.234 375.988 449.326 382.984C453.55 389.848 455.662 397.9 455.662 407.14C455.662 416.38 453.55 424.498 449.326 431.494C445.234 438.358 439.624 443.77 432.496 447.73C425.5 451.558 417.712 453.472 409.132 453.472H362.602ZM362.602 440.404V434.464H409.132C416.788 434.464 423.256 432.088 428.536 427.336C433.948 422.452 436.654 415.72 436.654 407.14C436.654 398.56 433.948 391.894 428.536 387.142C423.256 382.258 416.788 379.816 409.132 379.816H362.602V373.876H409.132C415.336 373.876 420.946 375.262 425.962 378.034C430.978 380.674 435.004 384.502 438.04 389.518C441.076 394.402 442.594 400.276 442.594 407.14C442.594 414.004 441.076 419.944 438.04 424.96C435.004 429.844 430.978 433.672 425.962 436.444C420.946 439.084 415.336 440.404 409.132 440.404H362.602ZM362.602 427.336V421.396H409.132C413.092 421.396 416.458 420.274 419.23 418.03C422.134 415.654 423.586 412.024 423.586 407.14C423.586 402.124 422.134 398.494 419.23 396.25C416.458 394.006 413.092 392.884 409.132 392.884H362.602V386.944H409.132C414.808 386.944 419.626 388.66 423.586 392.092C427.546 395.524 429.526 400.54 429.526 407.14C429.526 413.74 427.546 418.756 423.586 422.188C419.626 425.62 414.808 427.336 409.132 427.336H362.602ZM447.544 520L419.626 458.818C420.55 458.686 421.474 458.554 422.398 458.422C423.454 458.158 424.444 457.828 425.368 457.432L454.078 520H447.544ZM433.09 520L405.568 460.204C406.624 460.204 407.68 460.204 408.736 460.204C409.924 460.072 411.046 459.94 412.102 459.808L439.624 520H433.09ZM418.636 520L391.312 460.402H397.846L425.17 520H418.636ZM497.067 520V360.808H503.007V520H497.067ZM470.931 520V360.808H476.871V520H470.931ZM483.999 520V360.808H489.939V520H483.999ZM510.135 366.748V360.808H589.137V366.748H510.135ZM510.135 379.816V373.876H589.137V379.816H510.135ZM510.135 392.884V386.944H589.137V392.884H510.135ZM510.135 430.306V424.366H577.851V430.306H510.135ZM510.135 443.374V437.434H577.851V443.374H510.135ZM510.135 456.442V450.502H577.851V456.442H510.135ZM510.135 493.864V487.924H589.137V493.864H510.135ZM510.135 506.932V500.992H589.137V506.932H510.135ZM510.135 520V514.06H589.137V520H510.135Z" fill="#26A69A"/>
</g>
<defs>
<filter id="filter0_d_0_1" x="0" y="0.719994" width="476.081" height="276.28" filterUnits="userSpaceOnUse" color-interpolation-filters="sRGB">
<feFlood flood-opacity="0" result="BackgroundImageFix"/>
<feColorMatrix in="SourceAlpha" type="matrix" values="0 0 0 0 0 0 0 0 0 0 0 0 0 0 0 0 0 0 127 0" result="hardAlpha"/>
<feOffset dy="8"/>
<feGaussianBlur stdDeviation="4"/>
<feComposite in2="hardAlpha" operator="out"/>
<feColorMatrix type="matrix" values="0 0 0 0 0 0 0 0 0 0 0 0 0 0 0 0 0 0 0.4 0"/>
<feBlend mode="normal" in2="BackgroundImageFix" result="effect1_dropShadow_0_1"/>
<feBlend mode="normal" in="SourceGraphic" in2="effect1_dropShadow_0_1" result="shape"/>
</filter>
<filter id="filter1_i_0_1" x="4" y="327.04" width="585.137" height="196.96" filterUnits="userSpaceOnUse" color-interpolation-filters="sRGB">
<feFlood flood-opacity="0" result="BackgroundImageFix"/>
<feBlend mode="normal" in="SourceGraphic" in2="BackgroundImageFix" result="shape"/>
<feColorMatrix in="SourceAlpha" type="matrix" values="0 0 0 0 0 0 0 0 0 0 0 0 0 0 0 0 0 0 127 0" result="hardAlpha"/>
<feOffset dy="8"/>
<feGaussianBlur stdDeviation="2"/>
<feComposite in2="hardAlpha" operator="arithmetic" k2="-1" k3="1"/>
<feColorMatrix type="matrix" values="0 0 0 0 0 0 0 0 0 0 0 0 0 0 0 0 0 0 0.4 0"/>
<feBlend mode="normal" in2="shape" result="effect1_innerShadow_0_1"/>
</filter>
</defs>
</svg>
